<svg xmlns="http://www.w3.org/2000/svg" viewBox="0 0 140 140" role="img" aria-label="hooded charcoal tall agent with a glowing red eye"><g transform="translate(20 32)" stroke="#1A2230" stroke-width="3" stroke-linejoin="round" paint-order="stroke"><rect x="31" y="86" width="12" height="16" rx="5" fill="#1E2238"/><rect x="57" y="86" width="12" height="16" rx="5" fill="#1E2238"/><rect x="12" y="38" width="10" height="22" rx="5" fill="#1E2238"/><rect x="78" y="38" width="10" height="22" rx="5" fill="#1E2238"/><rect x="20" y="-4" width="60" height="94" rx="30" fill="#3A3F5C"/><ellipse cx="36" cy="10" rx="8" ry="5" fill="#5C6285"/><circle cx="50" cy="34" r="20" fill="#170812"/><circle cx="50" cy="34" r="15.6" fill="#FF3B5C" opacity="0.3"/><circle cx="50" cy="34" r="8.4" fill="#FF3B5C"/><circle cx="50" cy="34" r="3.0" fill="#FFD0D8"/><path d="M10 56 C10 -4 32 -20 50.0 -20 C68 -20 90 -4 90 56 L78 60 C78 14 70.0 4 50.0 4 C30.0 4 22 14 22 60 Z" fill="#1E2238"/><path d="M22 60 C22 14 30.0 4 50.0 4 C70.0 4 78 14 78 60" fill="none" stroke="#5C6285" stroke-width="4"/><ellipse cx="50.0" cy="23" rx="25" ry="11" fill="#000000" opacity="0.35"/></g></svg>
