<svg xmlns="http://www.w3.org/2000/svg" viewBox="0 0 140 140" role="img" aria-label="hooded charcoal drop agent with a glowing red eye"><g transform="translate(20 32)" stroke="#1A2230" stroke-width="3" stroke-linejoin="round" paint-order="stroke"><rect x="30" y="86" width="12" height="16" rx="5" fill="#1E2238"/><rect x="58" y="86" width="12" height="16" rx="5" fill="#1E2238"/><path d="M50 -2 C62 18 92 40 92 62 C92 82 74 92 50 92 C26 92 8 82 8 62 C8 40 38 18 50 -2 Z" fill="#3A3F5C"/><ellipse cx="34" cy="44" rx="8" ry="5" fill="#5C6285" transform="rotate(-35 34 44)"/><circle cx="50" cy="60" r="21" fill="#170812"/><circle cx="50" cy="60" r="16.4" fill="#FF3B5C" opacity="0.3"/><circle cx="50" cy="60" r="8.8" fill="#FF3B5C"/><circle cx="50" cy="60" r="3.1" fill="#FFD0D8"/><path d="M-2 83 C-2 -2 25 -18 50.0 -18 C75 -18 102 -2 102 83 L90 87 C90 39 71.0 29 50.0 29 C29.0 29 10 39 10 87 Z" fill="#1E2238"/><path d="M10 87 C10 39 29.0 29 50.0 29 C71.0 29 90 39 90 87" fill="none" stroke="#5C6285" stroke-width="4"/><ellipse cx="50.0" cy="48" rx="35" ry="12" fill="#000000" opacity="0.35"/></g></svg>
