<svg xmlns="http://www.w3.org/2000/svg" viewBox="0 0 140 140" role="img" aria-label="coral ghost agent with crown"><g transform="translate(20 32)"><path d="M8 50 A42 42 0 0 1 92 50 V88 Q85 100 78 90 Q71 100 64 90 Q57 100 50 90 Q43 100 36 90 Q29 100 22 90 Q15 100 8 88 Z" fill="#FF8A6B"/><ellipse cx="30" cy="24" rx="10" ry="5.5" fill="#FFD0C2" transform="rotate(-25 30 24)"/><circle cx="50" cy="48" r="23" fill="#FDFBFF"/><circle cx="53.1" cy="48.9" r="11.5" fill="#0B1026"/><circle cx="56.9" cy="43.4" r="3.9" fill="#FDFBFF"/><path d="M30 14 L32 -6 L42 4 L50 -10 L58 4 L68 -6 L70 14 Z" fill="#FFF251"/></g></svg>
