<svg xmlns="http://www.w3.org/2000/svg" viewBox="0 0 140 140" role="img" aria-label="glitching orange drop agent with a glowing red eye"><g transform="translate(20 32)"><g transform="translate(-6 0)" opacity="0.75"><rect x="30" y="86" width="12" height="16" rx="5" fill="#00E5FF"/><rect x="58" y="86" width="12" height="16" rx="5" fill="#00E5FF"/><path d="M50 -2 C62 18 92 40 92 62 C92 82 74 92 50 92 C26 92 8 82 8 62 C8 40 38 18 50 -2 Z" fill="#00E5FF"/><ellipse cx="34" cy="44" rx="8" ry="5" fill="#00E5FF" transform="rotate(-35 34 44)"/></g><g transform="translate(6 0)" opacity="0.75"><rect x="30" y="86" width="12" height="16" rx="5" fill="#FF2E88"/><rect x="58" y="86" width="12" height="16" rx="5" fill="#FF2E88"/><path d="M50 -2 C62 18 92 40 92 62 C92 82 74 92 50 92 C26 92 8 82 8 62 C8 40 38 18 50 -2 Z" fill="#FF2E88"/><ellipse cx="34" cy="44" rx="8" ry="5" fill="#FF2E88" transform="rotate(-35 34 44)"/></g><rect x="30" y="86" width="12" height="16" rx="5" fill="#B87708"/><rect x="58" y="86" width="12" height="16" rx="5" fill="#B87708"/><path d="M50 -2 C62 18 92 40 92 62 C92 82 74 92 50 92 C26 92 8 82 8 62 C8 40 38 18 50 -2 Z" fill="#F4AB1A"/><ellipse cx="34" cy="44" rx="8" ry="5" fill="#FFD98A" transform="rotate(-35 34 44)"/><circle cx="50" cy="60" r="21" fill="#170812"/><circle cx="50" cy="60" r="16.4" fill="#FF3B5C" opacity="0.3"/><circle cx="50" cy="60" r="8.8" fill="#FF3B5C"/><circle cx="50" cy="60" r="3.1" fill="#FFD0D8"/><rect x="-4" y="29" width="46" height="6" fill="#F4AB1A" stroke="none"/><rect x="62" y="87" width="44" height="5" fill="#F4AB1A" stroke="none"/><rect x="96" y="39" width="7" height="7" fill="#00E5FF"/><rect x="-8" y="81" width="6" height="6" fill="#FF2E88"/></g></svg>
